<svg xmlns="http://www.w3.org/2000/svg" width="26.102" height="32.634" viewBox="0 0 26.102 32.634"><defs><style>.a{fill:#fff;}</style></defs><path class="a" d="M19.669,4.559h-.006A13.051,13.051,0,0,0,6.612,17.61v.006h0c0,7.208,13.051,19.577,13.051,19.577s13.051-12.37,13.051-19.577V17.61A13.051,13.051,0,0,0,19.67,4.559h0ZM21.3,25.445V27.4H18.037V25.445a5.042,5.042,0,0,1-3.262-4.565v-.007h3.262a1.769,1.769,0,0,0,1.625,1.63h.006a1.769,1.769,0,0,0,1.63-1.625v-.006c0-.331-.918-.586-2.027-.863-1.689-.421-4.5-1.126-4.5-4.032a5.03,5.03,0,0,1,3.228-4.558l.034-.011V9.459h3.262v1.955a5.039,5.039,0,0,1,3.259,4.564v.007H21.293a1.766,1.766,0,0,0-1.622-1.63h-.006a1.769,1.769,0,0,0-1.63,1.625v.006c0,.331.918.587,2.027.866,1.689.421,4.5,1.126,4.5,4.03a5.031,5.031,0,0,1-3.235,4.561l-.034.011Z" transform="translate(-6.612 -4.559)"/></svg>