<svg xmlns="http://www.w3.org/2000/svg" xmlns:xlink="http://www.w3.org/1999/xlink" width="30" height="30" viewBox="0 0 30 30"><defs><style>.a,.c{fill:#495662;stroke:#495662;}.b{clip-path:url(#a);}.c{stroke-width:0.7px;}</style><clipPath id="a"><rect class="a" width="30" height="30"/></clipPath></defs><g class="b"><path class="c" d="M11.093,0A11.093,11.093,0,1,0,22.186,11.093,11.093,11.093,0,0,0,11.093,0Zm10.1,10.6h-3.73a15.5,15.5,0,0,0-1.211-5.234l1.172-.488,1.191-.518A10.048,10.048,0,0,1,21.19,10.6Zm-8.1,10.2-.059.107a.352.352,0,0,0,0,.107,11.064,11.064,0,0,1-1.406.166V16.542a11.4,11.4,0,0,1,3.369.8C14.335,18.661,13.671,19.842,13.085,20.809ZM15.858,17.7l1.162.508.85.371a10.1,10.1,0,0,1-3.584,2.1C14.794,19.813,15.341,18.807,15.858,17.7ZM9.179,20.916l-.059-.107c-.566-.976-1.25-2.158-1.865-3.476a11.327,11.327,0,0,1,3.349-.791V21.19a13.1,13.1,0,0,1-1.387-.156.547.547,0,0,0-.039-.117Zm-1.26-.225a10.136,10.136,0,0,1-3.593-2.138l.84-.381,1.182-.518A27.206,27.206,0,0,0,7.919,20.692ZM9.12,1.377l.059-.107a.352.352,0,0,0,0-.107A9.413,9.413,0,0,1,10.6.976V5.654a11.649,11.649,0,0,1-3.349-.771A38.559,38.559,0,0,1,9.12,1.377ZM6.347,4.492,5.166,3.974,4.316,3.6a10.136,10.136,0,0,1,3.6-2.109A30.245,30.245,0,0,0,6.347,4.492Zm6.679-3.222.059.107c.566.976,1.25,2.148,1.865,3.476a12.04,12.04,0,0,1-3.369.8V.976a9.531,9.531,0,0,1,1.406.156.352.352,0,0,0,.039.137Zm1.26.234A10.1,10.1,0,0,1,17.87,3.6l-.85.371-1.162.508C15.341,3.379,14.794,2.373,14.286,1.5ZM10.6,6.63V10.6H5.722A14.481,14.481,0,0,1,6.835,5.751,12.538,12.538,0,0,0,10.6,6.63Zm0,4.951v3.984a12.235,12.235,0,0,0-3.769.869,14.481,14.481,0,0,1-1.142-4.882Zm.976,3.984V11.581h4.882a14.589,14.589,0,0,1-1.142,4.882,12.44,12.44,0,0,0-3.74-.9Zm0-4.961V6.63a12.743,12.743,0,0,0,3.759-.889,14.589,14.589,0,0,1,1.142,4.882ZM3.574,4.345l1.191.537c.391.176.781.352,1.191.518a15.5,15.5,0,0,0-1.211,5.224H.976a10.038,10.038,0,0,1,2.6-6.279Zm-2.6,7.236H4.746a15.448,15.448,0,0,0,1.211,5.224l-1.191.518-1.191.518a10.038,10.038,0,0,1-2.6-6.259ZM18.553,17.84l-1.191-.518-1.172-.508A15.5,15.5,0,0,0,17.4,11.581H21.19a10.1,10.1,0,0,1-2.578,6.259Z" transform="translate(3.451 3.451)"/></g></svg>