<svg xmlns="http://www.w3.org/2000/svg" width="8.38" height="8.008" viewBox="0 0 8.38 8.008"><defs><style>.a{fill:#495662;}</style></defs><path class="a" d="M8.38,14.467v3.1h-1.8V14.675c0-.726-.26-1.222-.91-1.222a.983.983,0,0,0-.922.657,1.229,1.229,0,0,0-.06.438v3.017H2.9s.024-4.9,0-5.4h1.8v.766l-.012.017h.012v-.017a1.784,1.784,0,0,1,1.619-.893C7.494,12.036,8.38,12.808,8.38,14.467ZM1.017,9.558a.936.936,0,1,0-.024,1.867H1a.937.937,0,1,0,.012-1.867Zm-.91,8.008H1.9v-5.4H.107Z" transform="translate(0 -9.558)"/></svg>