<svg xmlns="http://www.w3.org/2000/svg" width="141.261" height="42.526" viewBox="0 0 141.261 42.526"><defs><style>.a{fill:#6dcff6;}.b{fill:#be1e2d;}.c{fill:#005aa9;}.d{fill:#005baa;}</style></defs><path class="a" d="M1088.638,385.034a2.648,2.648,0,0,0-.645-1.226l-2.913-2.722a1.633,1.633,0,0,0-1.237-.4l-.569.091-.132.021-1.36.218-.171.028-1.133.183a1.589,1.589,0,0,0-1.039.761l-1.632,3.453a2.576,2.576,0,0,0-.2,1.361l2.338,13.59a1.229,1.229,0,0,0,1.4,1l8.871-1.422c.662-.106.87-.688.756-1.346Zm-5.435.869a1.924,1.924,0,1,1,1.589-2.2A1.924,1.924,0,0,1,1083.2,385.9Z" transform="translate(-970.6 -360.861)"/><path class="b" d="M1065.1,389.608a2.872,2.872,0,0,0-.283-1.466l-2.165-3.717a1.762,1.762,0,0,0-1.152-.794l-.615-.082-.132-.019-1.471-.2-.185-.025-1.225-.164a1.7,1.7,0,0,0-1.31.462l-2.759,3.053a2.781,2.781,0,0,0-.628,1.341l-1.819,14.747a1.324,1.324,0,0,0,1.139,1.467l9.593,1.294c.718.1,1.112-.441,1.2-1.155Zm-5.88-.794a2.073,2.073,0,1,1,2.332-1.777A2.073,2.073,0,0,1,1059.223,388.813Z" transform="translate(-947.837 -362.993)"/><path class="c" d="M275.4,231.459a.608.608,0,0,1,.637-.47h.776a.6.6,0,0,1,.634.47l5.693,15.388c.117.424-.048.682-.473.682h-.515a.621.621,0,0,1-.662-.47l-1.764-4.8h-6.637l-1.741,4.8a.619.619,0,0,1-.662.47H270.2c-.448,0-.61-.258-.494-.682Zm3.86,9.387-2.187-6c-.265-.777-.613-2.165-.613-2.165h-.046s-.376,1.388-.635,2.165l-2.211,6Z" transform="translate(-269.649 -230.987)"/><path class="c" d="M392.18,231.588a.516.516,0,0,1,.565-.588h.494a.526.526,0,0,1,.565.588v14.494h7.082a.534.534,0,0,1,.588.588v.282a.533.533,0,0,1-.588.588h-8.141a.516.516,0,0,1-.565-.588Z" transform="translate(-375.942 -230.998)"/><path class="d" d="M453.184,232.448h-5.337a.531.531,0,0,1-.587-.587v-.283a.531.531,0,0,1,.587-.588h12.329a.533.533,0,0,1,.589.588v.283a.532.532,0,0,1-.589.587h-5.365v14.5a.515.515,0,0,1-.564.588h-.47a.533.533,0,0,1-.589-.588Z" transform="translate(-423.73 -230.99)"/><path class="c" d="M567.71,231.588a.516.516,0,0,1,.565-.588h8.163a.533.533,0,0,1,.589.588v.283a.532.532,0,0,1-.589.587h-7.1v6.024h5.693a.515.515,0,0,1,.587.564v.306a.533.533,0,0,1-.587.588h-5.693v6.142h7.53a.533.533,0,0,1,.588.588v.282a.532.532,0,0,1-.588.588h-8.589a.516.516,0,0,1-.565-.588Z" transform="translate(-528.232 -230.998)"/><path class="c" d="M665.957,231.588a.515.515,0,0,1,.563-.588h4.469a6.841,6.841,0,0,1,3.012.47,4.34,4.34,0,0,1,2.445,4.142,4.538,4.538,0,0,1-3.13,4.564v.046a6.287,6.287,0,0,1,.425.662l3.223,5.977c.212.4.048.682-.4.682h-.612a.714.714,0,0,1-.682-.4l-3.529-6.564h-4.172v6.376a.526.526,0,0,1-.565.588h-.494a.515.515,0,0,1-.563-.588Zm5.553,7.53a3.166,3.166,0,0,0,3.27-3.46,3.026,3.026,0,0,0-1.742-2.894,4.906,4.906,0,0,0-2.165-.306h-3.3v6.66Z" transform="translate(-613.465 -230.998)"/><path class="c" d="M774.13,231.585A.516.516,0,0,1,774.7,231h.564a.8.8,0,0,1,.706.376l8.189,11.53c.564.824,1.365,2.235,1.365,2.235h.046s-.142-1.365-.142-2.235V231.585a.532.532,0,0,1,.588-.588h.471a.516.516,0,0,1,.565.588v15.359a.516.516,0,0,1-.565.588h-.565a.739.739,0,0,1-.682-.376l-8.21-11.524c-.565-.824-1.366-2.235-1.366-2.235h-.046s.142,1.364.142,2.235v11.316a.526.526,0,0,1-.565.588H774.7a.516.516,0,0,1-.565-.588Z" transform="translate(-707.321 -230.996)"/><path class="c" d="M897.847,231.459a.606.606,0,0,1,.635-.47h.777a.607.607,0,0,1,.634.47l5.693,15.388c.119.424-.045.682-.47.682H904.6a.624.624,0,0,1-.662-.47l-1.765-4.8h-6.636l-1.741,4.8a.616.616,0,0,1-.662.47h-.494c-.446,0-.613-.258-.494-.682Zm3.859,9.387-2.189-6c-.265-.777-.612-2.165-.612-2.165h-.048s-.376,1.388-.634,2.165l-2.214,6Z" transform="translate(-809.679 -230.988)"/><path class="c" d="M992.889,232.448h-5.342a.531.531,0,0,1-.587-.587v-.283a.531.531,0,0,1,.587-.588h12.329a.533.533,0,0,1,.589.588v.283a.532.532,0,0,1-.589.587h-5.364v14.5a.516.516,0,0,1-.565.588h-.469a.532.532,0,0,1-.589-.588Z" transform="translate(-891.972 -230.99)"/><path class="c" d="M1107.41,231.588a.516.516,0,0,1,.565-.588h.494a.525.525,0,0,1,.563.588V252.8a.525.525,0,0,1-.563.588h-.494a.516.516,0,0,1-.565-.588Z" transform="translate(-996.474 -230.998)"/><path class="c" d="M1139.952,231.671c-.143-.424.022-.682.47-.682h.542a.623.623,0,0,1,.662.47l4.4,12.094c.3.849.634,2.141.634,2.141h.046s.352-1.292.636-2.141l4.447-12.094a.6.6,0,0,1,.634-.47h.565c.424,0,.587.258.471.682l-5.719,15.388a.632.632,0,0,1-.662.47h-.776a.609.609,0,0,1-.635-.47Z" transform="translate(-1024.664 -230.987)"/><path class="c" d="M1262.84,231.588a.517.517,0,0,1,.565-.588h8.167a.532.532,0,0,1,.587.588v.283a.532.532,0,0,1-.587.587h-7.106v6.024h5.693a.516.516,0,0,1,.589.564v.306a.533.533,0,0,1-.589.588h-5.693v6.142H1272a.535.535,0,0,1,.589.588v.282a.534.534,0,0,1-.589.588h-8.589a.517.517,0,0,1-.565-.588Z" transform="translate(-1131.325 -230.998)"/><path class="c" d="M275.277,400.65a.605.605,0,0,1,.634-.471h.776a.606.606,0,0,1,.637.471l5.693,15.386c.119.424-.048.682-.47.682h-.519a.622.622,0,0,1-.662-.47l-1.765-4.8H272.97l-1.741,4.8a.617.617,0,0,1-.662.47h-.494c-.449,0-.613-.265-.5-.682Zm3.858,9.387-2.19-6c-.265-.777-.61-2.165-.61-2.165h-.048s-.377,1.388-.637,2.165l-2.208,6Z" transform="translate(-269.541 -377.776)"/><path class="c" d="M439.16,400.778a.516.516,0,0,1,.564-.588H444.2a6.821,6.821,0,0,1,3.012.471,4.337,4.337,0,0,1,2.445,4.14,4.535,4.535,0,0,1-3.13,4.564v.049a5.971,5.971,0,0,1,.425.662l3.223,5.977c.212.4.048.682-.4.682h-.609a.712.712,0,0,1-.683-.4l-3.528-6.563h-4.171v6.375a.525.525,0,0,1-.565.588h-.493a.515.515,0,0,1-.564-.588Zm5.553,7.53a3.166,3.166,0,0,0,3.27-3.46,3.021,3.021,0,0,0-1.742-2.892,4.857,4.857,0,0,0-2.165-.308h-3.294v6.66Z" transform="translate(-416.702 -377.787)"/><path class="c" d="M547.35,400.778a.515.515,0,0,1,.564-.588h.494a.527.527,0,0,1,.565.588v14.493h7.081a.534.534,0,0,1,.589.589v.282a.533.533,0,0,1-.589.588h-8.14a.515.515,0,0,1-.564-.588Z" transform="translate(-510.567 -377.787)"/><path class="c" d="M635.991,400.778a.517.517,0,0,1,.565-.588h.494a.526.526,0,0,1,.564.588v15.359a.525.525,0,0,1-.564.588h-.5a.517.517,0,0,1-.565-.588Z" transform="translate(-587.471 -377.787)"/><path class="c" d="M395.78,400.778a.517.517,0,0,1,.565-.588h.5a.526.526,0,0,1,.564.588v15.359a.525.525,0,0,1-.564.588h-.5a.517.517,0,0,1-.565-.588Z" transform="translate(-379.066 -377.787)"/><path class="c" d="M683.08,400.775a.515.515,0,0,1,.563-.588h.565a.8.8,0,0,1,.706.377l8.189,11.528c.563.824,1.364,2.235,1.364,2.235h.048s-.14-1.364-.14-2.235V400.775a.532.532,0,0,1,.587-.588h.47a.516.516,0,0,1,.565.588v15.359a.516.516,0,0,1-.565.588h-.563a.748.748,0,0,1-.684-.376l-8.209-11.528c-.565-.824-1.364-2.235-1.364-2.235h-.048s.14,1.365.14,2.235v11.316a.526.526,0,0,1-.565.588h-.494a.514.514,0,0,1-.563-.588Z" transform="translate(-628.326 -377.785)"/><path class="c" d="M815.42,400.778a.516.516,0,0,1,.564-.588h8.165a.534.534,0,0,1,.589.588v.282a.533.533,0,0,1-.589.588h-7.106v6.023h5.693a.517.517,0,0,1,.588.565v.306a.533.533,0,0,1-.588.589h-5.693v6.139h7.528a.534.534,0,0,1,.589.589v.282a.533.533,0,0,1-.589.588h-8.588a.515.515,0,0,1-.564-.588Z" transform="translate(-743.144 -377.787)"/><path class="c" d="M905.258,412.6l.282-.352a.532.532,0,0,1,.824-.072,6.111,6.111,0,0,0,3.812,1.435c1.975,0,3.366-1.106,3.366-2.823,0-4.165-8.237-3.178-8.237-8.307,0-2.705,2.281-4.422,5.177-4.422a6.762,6.762,0,0,1,4.018,1.295.522.522,0,0,1,.14.776l-.212.376a.53.53,0,0,1-.824.164,5.572,5.572,0,0,0-3.178-1.059c-1.884,0-3.46,1.035-3.46,2.78,0,3.972,8.235,2.913,8.235,8.234,0,2.541-1.883,4.541-5.031,4.541a7.772,7.772,0,0,1-4.847-1.742A.576.576,0,0,1,905.258,412.6Z" transform="translate(-820.963 -375.938)"/></svg>