<svg xmlns="http://www.w3.org/2000/svg" width="50.613" height="67.983" viewBox="0 0 50.613 67.983"><defs><style>.a,.b{fill:#fff;}.a{opacity:0.5;}</style></defs><path class="a" d="M44.259,17.763a7.961,7.961,0,0,0-1.932-3.676l.006.006L33.588,5.94a4.9,4.9,0,0,0-3.723-1.175l.021,0-2.1.342-4.583.71-3.393.545a4.765,4.765,0,0,0-3.1,2.259l-.012.024L11.809,18.982a7.711,7.711,0,0,0-.592,4.112l0-.038,7.007,40.721a3.689,3.689,0,0,0,3.626,3.031,3.75,3.75,0,0,0,.607-.05l-.021,0L49,62.5c1.988-.318,2.6-2.065,2.262-4.032Zm-16.291,2.6a5.513,5.513,0,0,1-.913.074,5.764,5.764,0,1,1,5.688-6.707l.006.032a5.487,5.487,0,0,1,.074.913A5.764,5.764,0,0,1,28,20.364l-.032.006Z" transform="translate(-0.74 -4.738)"/><path class="b" d="M48.824,24.446c.015-.189.024-.406.024-.624a8.543,8.543,0,0,0-.892-3.814l.024.05L41.5,8.926a5.289,5.289,0,0,0-3.417-2.377l-.035-.006L27.148,5.08c-.124-.012-.268-.018-.415-.018a5.09,5.09,0,0,0-3.514,1.4l0,0-8.247,9.146A8.267,8.267,0,0,0,13.1,19.574l-.006.05L7.644,63.786a3.764,3.764,0,0,0-.027.462,3.968,3.968,0,0,0,3.42,3.929l.021,0,28.727,3.876c2.147.292,3.331-1.32,3.591-3.455ZM31.213,22.06a6.195,6.195,0,1,1,4.616-1.216l-.015.012a6.221,6.221,0,0,1-4.633,1.2Z" transform="translate(-7.617 -4.108)"/></svg>