<svg id="Layer_1" data-name="Layer 1" xmlns="http://www.w3.org/2000/svg" width="109.36mm" height="109.36mm" viewBox="0 0 310 310">
  <defs>
    <style>
      .cls-1 {
        fill: #495662;
      }
    </style>
  </defs>
  <title>Artboard 1</title>
  <path class="cls-1" d="M303,57.39a117.23,117.23,0,0,1-15,5.46,66.24,66.24,0,0,0,13.49-23.73,5,5,0,0,0-7.31-5.82,118.12,118.12,0,0,1-34.88,13.78A66.58,66.58,0,0,0,146.15,94.64a68.24,68.24,0,0,0,.55,8.6,170.37,170.37,0,0,1-116.94-62,5,5,0,0,0-8.2.65,66.64,66.64,0,0,0,6.83,76.59,55.89,55.89,0,0,1-8.91-4,5,5,0,0,0-7.42,4.25c0,.3,0,.59,0,.89a66.76,66.76,0,0,0,32.58,57.23c-1.7-.17-3.39-.41-5.07-.73a5,5,0,0,0-5.7,6.43,66.54,66.54,0,0,0,48.75,44.61,117.71,117.71,0,0,1-62.93,18,120.15,120.15,0,0,1-14.09-.83,5,5,0,0,0-3.29,9.18A179.44,179.44,0,0,0,99.35,281.9c67.75,0,110.13-31.95,133.76-58.75,29.46-33.42,46.36-77.66,46.36-121.37,0-1.82,0-3.67-.09-5.51a129.22,129.22,0,0,0,29.77-31.53A5,5,0,0,0,303,57.39Z"/>
</svg>
